<svg width="1200" height="630" viewBox="0 0 1200 630" fill="none" xmlns="http://www.w3.org/2000/svg">
  <defs>
    <linearGradient id="bg" x1="72" y1="42" x2="1128" y2="588" gradientUnits="userSpaceOnUse">
      <stop stop-color="#07101E"/>
      <stop offset="0.55" stop-color="#0F172A"/>
      <stop offset="1" stop-color="#020617"/>
    </linearGradient>
    <radialGradient id="glowA" cx="0" cy="0" r="1" gradientUnits="userSpaceOnUse" gradientTransform="translate(360 210) rotate(24) scale(360 260)">
      <stop stop-color="#22D3EE" stop-opacity="0.22"/>
      <stop offset="1" stop-color="#22D3EE" stop-opacity="0"/>
    </radialGradient>
    <radialGradient id="glowB" cx="0" cy="0" r="1" gradientUnits="userSpaceOnUse" gradientTransform="translate(980 100) rotate(140) scale(220 180)">
      <stop stop-color="#6366F1" stop-opacity="0.18"/>
      <stop offset="1" stop-color="#6366F1" stop-opacity="0"/>
    </radialGradient>
    <linearGradient id="accent" x1="0" y1="0" x2="1" y2="1">
      <stop stop-color="#22D3EE"/>
      <stop offset="1" stop-color="#38BDF8"/>
    </linearGradient>
    <clipPath id="portraitClip">
      <rect x="920" y="176" width="180" height="180" rx="28"/>
    </clipPath>
  </defs>

  <rect width="1200" height="630" fill="url(#bg)"/>

  <g opacity="0.3">
    <path d="M0 70.5H1200" stroke="#1E293B"/>
    <path d="M0 140.5H1200" stroke="#1E293B"/>
    <path d="M0 210.5H1200" stroke="#1E293B"/>
    <path d="M0 280.5H1200" stroke="#1E293B"/>
    <path d="M0 350.5H1200" stroke="#1E293B"/>
    <path d="M0 420.5H1200" stroke="#1E293B"/>
    <path d="M0 490.5H1200" stroke="#1E293B"/>
    <path d="M0 560.5H1200" stroke="#1E293B"/>
    <path d="M80 0V630" stroke="#1E293B"/>
    <path d="M160 0V630" stroke="#1E293B"/>
    <path d="M240 0V630" stroke="#1E293B"/>
    <path d="M320 0V630" stroke="#1E293B"/>
    <path d="M400 0V630" stroke="#1E293B"/>
    <path d="M480 0V630" stroke="#1E293B"/>
    <path d="M560 0V630" stroke="#1E293B"/>
    <path d="M640 0V630" stroke="#1E293B"/>
    <path d="M720 0V630" stroke="#1E293B"/>
    <path d="M800 0V630" stroke="#1E293B"/>
    <path d="M880 0V630" stroke="#1E293B"/>
    <path d="M960 0V630" stroke="#1E293B"/>
    <path d="M1040 0V630" stroke="#1E293B"/>
    <path d="M1120 0V630" stroke="#1E293B"/>
  </g>

  <circle cx="360" cy="210" r="180" fill="url(#glowA)"/>
  <circle cx="980" cy="100" r="120" fill="url(#glowB)"/>

  <rect x="64" y="64" width="1072" height="502" rx="34" fill="#0F172ACC" stroke="#FFFFFF1A"/>
  <rect x="98" y="104" width="6" height="92" rx="3" fill="url(#accent)"/>

  <text x="128" y="138" fill="#67E8F9" font-family="Manrope, Arial, sans-serif" font-size="24" font-weight="800" letter-spacing="6">
    ALIHANCAKIRALIOGLU.COM
  </text>

  <text x="128" y="264" fill="#F8FAFC" font-family="Manrope, Arial, sans-serif" font-size="82" font-weight="800">
    DevOps Engineer
  </text>

  <text x="128" y="342" fill="#CBD5E1" font-family="Manrope, Arial, sans-serif" font-size="32" font-weight="500">
    Building scalable infrastructure and resilient platforms.
  </text>

  <rect x="920" y="176" width="180" height="180" rx="28" fill="#0B1120" stroke="#FFFFFF1A"/>
  <image href="profile.png" x="920" y="176" width="180" height="180" preserveAspectRatio="xMidYMid slice" clip-path="url(#portraitClip)"/>

</svg>
